<svg xmlns="http://www.w3.org/2000/svg" width="297" height="297" fill="none"><rect width="297" height="297" fill="#0073AA" rx="46"/><rect width="29.569" height="29.569" x="155" y="100" fill="#fff" rx="8.276"/><path fill="#fff" d="M155 152.848v35.738a8.276 8.276 0 0 0 8.276 8.276h13.016a8.276 8.276 0 0 0 8.277-8.276v-43.592c0-6.443-7.037-10.415-12.553-7.086L159 145.762a8.278 8.278 0 0 0-4 7.086ZM188.647 121.292v-13.016a8.276 8.276 0 0 1 8.276-8.276h16.399c2.81 0 5.506 1.104 7.51 3.074l9.258 9.104a9.734 9.734 0 0 1 2.91 6.942v25.102a9.739 9.739 0 0 1-2.91 6.943l-9.841 9.676a8.277 8.277 0 0 1-5.803 2.375h-17.523a8.276 8.276 0 0 1-8.276-8.277v-13.016a8.276 8.276 0 0 1 8.276-8.276h18.999a2.04 2.04 0 0 0 0-4.078h-18.999a8.276 8.276 0 0 1-8.276-8.277ZM89.162 146.458H68.23a4.34 4.34 0 0 1-4.34-4.339v-24.704c0-1.506.605-2.949 1.679-4.005l12.147-11.945a5.105 5.105 0 0 1 3.58-1.465h43.3c1.339 0 2.624.526 3.579 1.465l12.529 12.32a4.34 4.34 0 0 1 1.297 3.095v25.239a4.34 4.34 0 0 1-4.339 4.339H116.73a4.339 4.339 0 0 1-4.339-4.339V119.4a4.34 4.34 0 0 0-4.34-4.339h-10.21a4.34 4.34 0 0 0-4.34 4.339v22.719a4.34 4.34 0 0 1-4.34 4.339ZM89.162 150.542H68.23a4.34 4.34 0 0 0-4.34 4.339v24.932c0 1.522.619 2.979 1.714 4.037l12.119 11.715A5.107 5.107 0 0 0 81.27 197h43.35a5.109 5.109 0 0 0 3.549-1.435l12.508-12.091a4.34 4.34 0 0 0 1.323-3.12v-25.473a4.339 4.339 0 0 0-4.339-4.339H116.73a4.34 4.34 0 0 0-4.339 4.339V177.6a4.34 4.34 0 0 1-4.34 4.339h-10.21a4.34 4.34 0 0 1-4.34-4.339v-22.719a4.34 4.34 0 0 0-4.339-4.339Z"/></svg>