<svg xmlns="http://www.w3.org/2000/svg" width="297" height="297" fill="none"><rect width="297" height="297" fill="#0073AA" rx="46"/><rect width="29.569" height="29.569" x="155" y="100" fill="#fff" rx="8.276"/><path fill="#fff" d="M155 152.849v35.738a8.276 8.276 0 0 0 8.276 8.276h13.016a8.277 8.277 0 0 0 8.277-8.276v-43.593c0-6.442-7.037-10.414-12.553-7.086L159 145.763a8.277 8.277 0 0 0-4 7.086ZM188.647 121.292v-13.016a8.276 8.276 0 0 1 8.276-8.276h16.399c2.81 0 5.506 1.104 7.51 3.074l9.258 9.104a9.734 9.734 0 0 1 2.91 6.942v25.102a9.739 9.739 0 0 1-2.91 6.943l-9.841 9.676a8.277 8.277 0 0 1-5.803 2.375h-17.523a8.276 8.276 0 0 1-8.276-8.277v-13.016a8.276 8.276 0 0 1 8.276-8.276h18.999a2.04 2.04 0 0 0 0-4.078h-18.999a8.276 8.276 0 0 1-8.276-8.277ZM124.942 100H110.06a4.39 4.39 0 0 0-4.39 4.39v20.83a4.39 4.39 0 0 0 4.39 4.391h27.99c3.454 0 5.556-3.805 3.716-6.729l-13.108-20.83a4.391 4.391 0 0 0-3.716-2.052ZM105.779 159.129l-.09-21.025a4.39 4.39 0 0 1 4.39-4.409h14.962c1.49 0 2.921.585 3.983 1.63l12.114 11.912a5.167 5.167 0 0 1 1.543 3.683v28.969a5.167 5.167 0 0 1-1.559 3.699l-12.477 12.165c-.82.8-1.92 1.247-3.065 1.247h-15.392a4.39 4.39 0 0 1-4.391-4.39v-20.719a4.391 4.391 0 0 1 4.391-4.391h15.434a2 2 0 0 0 0-4h-15.453a4.39 4.39 0 0 1-4.39-4.371ZM81.386 167.5h15.809a4.39 4.39 0 0 1 4.39 4.39v20.72a4.39 4.39 0 0 1-4.39 4.39H68.803c-3.423 0-5.53-3.743-3.753-6.669l12.583-20.72a4.39 4.39 0 0 1 3.753-2.111ZM101.587 125.22v-20.83a4.39 4.39 0 0 0-4.39-4.39h-14.98c-1.491 0-2.922.586-3.985 1.631L66.12 113.543a5.165 5.165 0 0 0-1.544 3.682v29.002c0 1.373.547 2.69 1.52 3.659l12.383 12.334a4.389 4.389 0 0 0 3.098 1.28h15.62a4.39 4.39 0 0 0 4.391-4.39v-21.025a4.39 4.39 0 0 0-4.39-4.39h-15.52a2.043 2.043 0 0 1 0-4.084h15.52a4.39 4.39 0 0 0 4.39-4.391Z"/></svg>