<svg width="297" height="297" viewBox="0 0 297 297" fill="none" xmlns="http://www.w3.org/2000/svg">
<rect width="297" height="297" rx="46" fill="#0073AA"/>
<rect x="163.447" y="100" width="29.512" height="29.6698" rx="4.34109" fill="white"/>
<rect x="197.077" y="133.616" width="29.6089" height="29.7672" rx="4.35533" fill="white"/>
<path d="M163.629 179.735L163.629 137.986C163.629 135.594 165.568 133.655 167.96 133.655L188.741 133.655C191.133 133.655 193.072 135.594 193.072 137.986L193.072 192.695C193.072 196.095 189.334 198.169 186.449 196.37L165.668 183.41C164.4 182.619 163.629 181.229 163.629 179.735Z" fill="white"/>
<rect x="241.744" y="100" width="29.7672" height="44.6685" rx="4.35533" transform="rotate(90 241.744 100)" fill="white"/>
<rect x="241.744" y="167.233" width="29.7672" height="44.6685" rx="4.35533" transform="rotate(90 241.744 167.233)" fill="white"/>
<path d="M84.5773 117.543V159.008C84.5773 161.402 82.6366 163.343 80.2427 163.343H59.3346C56.9407 163.343 55 161.402 55 159.008L55 104.358C55 100.946 58.7604 98.8714 61.6468 100.692L82.5549 113.877C83.8137 114.671 84.5773 116.055 84.5773 117.543Z" fill="white"/>
<path d="M122.06 117.543V159.008C122.06 161.402 124 163.343 126.394 163.343H147.302C149.696 163.343 151.637 161.402 151.637 159.008L151.637 104.358C151.637 100.946 147.877 98.8714 144.99 100.692L124.082 113.877C122.823 114.671 122.06 116.055 122.06 117.543Z" fill="white"/>
<path d="M126.393 167.423L147.301 167.423C149.695 167.423 151.636 169.363 151.636 171.757L151.636 179.123C151.636 180.611 151.045 182.037 149.993 183.089L137.576 195.506C136.62 196.463 135.323 197 133.97 197L72.3083 197C70.9411 197 69.6312 196.451 68.6725 195.476L56.2441 182.839C55.4468 182.028 55 180.937 55 179.8L55 171.757C55 169.363 56.9407 167.423 59.3346 167.423L80.4976 167.423C82.8916 167.423 84.8322 169.363 84.8322 171.757L84.8322 180.299C84.8322 181.355 85.6884 182.211 86.7446 182.211C87.8007 182.211 88.6569 181.355 88.6569 180.299L88.6569 171.757C88.6569 169.363 90.5976 167.423 92.9915 167.423L113.9 167.423C116.294 167.423 118.234 169.363 118.234 171.757L118.234 180.299C118.234 181.355 119.09 182.211 120.146 182.211C121.203 182.211 122.059 181.355 122.059 180.299L122.059 171.757C122.059 169.363 123.999 167.423 126.393 167.423Z" fill="white"/>
<path d="M88.6593 134.021C88.6593 131.627 90.6 129.686 92.9939 129.686H113.902C116.296 129.686 118.237 131.627 118.237 134.021V159.008C118.237 161.402 116.296 163.343 113.902 163.343H92.9939C90.6 163.343 88.6593 161.402 88.6593 159.008V134.021Z" fill="white"/>
</svg>
