<svg xmlns="http://www.w3.org/2000/svg" width="297" height="297" fill="none"><rect width="297" height="297" fill="#0073AA" rx="46"/><rect width="29.512" height="29.67" x="55.447" y="100" fill="#fff" rx="4.341"/><rect width="29.609" height="29.767" x="89.077" y="133.616" fill="#fff" rx="4.355"/><path fill="#fff" d="M55.629 179.735v-41.749a4.33 4.33 0 0 1 4.33-4.331h20.782a4.33 4.33 0 0 1 4.33 4.331v54.709c0 3.4-3.737 5.474-6.622 3.675l-20.781-12.96a4.332 4.332 0 0 1-2.04-3.675Z"/><rect width="29.767" height="44.669" x="133.744" y="100" fill="#fff" rx="4.355" transform="rotate(90 133.744 100)"/><rect width="29.767" height="44.669" x="133.744" y="167.232" fill="#fff" rx="4.355" transform="rotate(90 133.744 167.232)"/><path fill="#fff" d="M148 176.895v-40.119a4.196 4.196 0 0 1 4.196-4.196h20.239a4.196 4.196 0 0 1 4.196 4.196v52.681c0 3.29-3.614 5.3-6.409 3.565l-20.239-12.562a4.196 4.196 0 0 1-1.983-3.565ZM241.544 176.895v-40.119a4.196 4.196 0 0 0-4.196-4.196h-20.239a4.196 4.196 0 0 0-4.196 4.196v52.681c0 3.29 3.613 5.3 6.409 3.565l20.239-12.562a4.196 4.196 0 0 0 1.983-3.565ZM217.109 128.631h20.239a4.196 4.196 0 0 0 4.196-4.196v-7.13a5.43 5.43 0 0 0-1.591-3.84l-12.019-12.019a4.937 4.937 0 0 0-3.491-1.446h-59.689a4.934 4.934 0 0 0-3.519 1.475l-12.031 12.233A4.194 4.194 0 0 0 148 116.65v7.785a4.196 4.196 0 0 0 4.196 4.196h20.486a4.196 4.196 0 0 0 4.196-4.196v-8.268a1.85 1.85 0 1 1 3.702 0v8.268a4.196 4.196 0 0 0 4.196 4.196h20.239a4.196 4.196 0 0 0 4.196-4.196v-8.268a1.852 1.852 0 1 1 3.702 0v8.268a4.196 4.196 0 0 0 4.196 4.196ZM180.58 160.965a4.195 4.195 0 0 0 4.196 4.196h20.239a4.196 4.196 0 0 0 4.196-4.196v-24.188a4.196 4.196 0 0 0-4.196-4.196h-20.239a4.196 4.196 0 0 0-4.196 4.196v24.188Z"/></svg>