<svg width="297" height="297" viewBox="0 0 297 297" fill="none" xmlns="http://www.w3.org/2000/svg">
<rect width="297" height="297" rx="46" fill="#0073AA"/>
<path d="M180.162 146.458L159.23 146.458C156.833 146.458 154.891 144.515 154.891 142.118L154.891 117.414C154.891 115.909 155.495 114.466 156.569 113.41L168.716 101.465C169.671 100.526 170.957 99.9999 172.296 99.9999L215.596 99.9999C216.935 99.9999 218.22 100.526 219.175 101.465L231.704 113.785C232.534 114.601 233.001 115.716 233.001 116.879L233.001 142.118C233.001 144.515 231.058 146.458 228.662 146.458L207.73 146.458C205.333 146.458 203.391 144.515 203.391 142.118L203.391 119.4C203.391 117.003 201.448 115.06 199.051 115.06L188.841 115.06C186.444 115.06 184.501 117.003 184.501 119.4L184.501 142.118C184.501 144.515 182.558 146.458 180.162 146.458Z" fill="white"/>
<path d="M180.162 150.542L159.23 150.542C156.834 150.542 154.891 152.485 154.891 154.882L154.891 179.813C154.891 181.335 155.509 182.792 156.604 183.85L168.723 195.565C169.675 196.486 170.947 197 172.271 197L215.621 197C216.945 197 218.218 196.486 219.17 195.565L231.678 183.474C232.524 182.657 233.001 181.531 233.001 180.354L233.001 154.882C233.001 152.485 231.059 150.542 228.662 150.542L207.73 150.542C205.334 150.542 203.391 152.485 203.391 154.882L203.391 177.6C203.391 179.997 201.448 181.94 199.051 181.94L188.841 181.94C186.444 181.94 184.501 179.997 184.501 177.6L184.501 154.882C184.501 152.485 182.559 150.542 180.162 150.542Z" fill="white"/>
<rect x="64" y="100" width="29.6105" height="29.6105" rx="4.33947" fill="white"/>
<path d="M64 151.169V192.66C64 195.057 65.9428 197 68.3395 197H89.271C91.6676 197 93.6105 195.057 93.6105 192.66V138.177C93.6105 134.775 89.8733 132.696 86.9825 134.49L66.051 147.482C64.7757 148.274 64 149.668 64 151.169Z" fill="white"/>
<path d="M97.5851 125.271V104.339C97.5851 101.943 99.528 100 101.925 100H124.387C125.86 100 127.274 100.579 128.324 101.612L140.475 113.56C141.451 114.52 142.001 115.831 142.001 117.2V180.029C142.001 181.413 141.439 182.738 140.444 183.7L127.947 195.78C127.137 196.563 126.056 197 124.931 197H101.925C99.528 197 97.5851 195.057 97.5851 192.66V171.729C97.5851 169.332 99.528 167.389 101.925 167.389H108.051C110.448 167.389 112.39 165.447 112.39 163.05V133.95C112.39 131.553 110.448 129.61 108.051 129.61H101.925C99.528 129.61 97.5851 127.668 97.5851 125.271Z" fill="white"/>
</svg>
