<svg width="297" height="297" viewBox="0 0 297 297" fill="none" xmlns="http://www.w3.org/2000/svg">
<rect width="297" height="297" rx="46" fill="#0073AA"/>
<rect x="154.447" y="100" width="29.512" height="29.6698" rx="4.34109" fill="white"/>
<rect x="188.077" y="133.616" width="29.6089" height="29.7672" rx="4.35533" fill="white"/>
<path d="M154.629 179.735L154.629 137.986C154.629 135.594 156.568 133.655 158.96 133.655L179.741 133.655C182.133 133.655 184.072 135.594 184.072 137.986L184.072 192.695C184.072 196.095 180.334 198.169 177.449 196.37L156.668 183.41C155.4 182.619 154.629 181.229 154.629 179.735Z" fill="white"/>
<rect x="232.744" y="100" width="29.7672" height="44.6685" rx="4.35533" transform="rotate(90 232.744 100)" fill="white"/>
<rect x="232.744" y="167.233" width="29.7672" height="44.6685" rx="4.35533" transform="rotate(90 232.744 167.233)" fill="white"/>
<rect x="93.6906" y="100" width="29.6887" height="29.6887" rx="4.35092" transform="rotate(90 93.6906 100)" fill="white"/>
<rect x="93.6906" y="133.784" width="63.2164" height="29.6887" rx="4.35092" transform="rotate(90 93.6906 133.784)" fill="white"/>
<rect x="142.318" y="100" width="29.6887" height="44.533" rx="4.35092" transform="rotate(90 142.318 100)" fill="white"/>
<path d="M110.428 133.784L102.135 133.784C99.7321 133.784 97.7842 135.732 97.7842 138.135L97.7842 159.121C97.7842 161.524 99.7321 163.472 102.135 163.472L123.093 163.472C126.48 163.472 128.568 159.773 126.818 156.873L114.153 135.887C113.366 134.581 111.953 133.784 110.428 133.784Z" fill="white"/>
</svg>
