<svg xmlns="http://www.w3.org/2000/svg" width="297" height="297" fill="none"><rect width="297" height="297" fill="#0073AA" rx="46"/><path fill="#fff" d="M90.19 146.311H69.327A4.326 4.326 0 0 1 65 141.985v-24.427c0-1.468.577-2.878 1.606-3.925l11.911-12.112A5.089 5.089 0 0 1 82.146 100h43.367c1.335 0 2.616.524 3.568 1.46l12.489 12.281a4.329 4.329 0 0 1 1.293 3.085v25.159a4.326 4.326 0 0 1-4.326 4.326h-20.865a4.326 4.326 0 0 1-4.326-4.326v-22.647a4.325 4.325 0 0 0-4.326-4.325H98.842a4.325 4.325 0 0 0-4.325 4.325v22.647a4.326 4.326 0 0 1-4.326 4.326ZM94.517 169.338v23.028a4.326 4.326 0 0 1-4.326 4.326H70.09A5.09 5.09 0 0 1 65 191.603v-37.15a4.326 4.326 0 0 1 4.326-4.326h35.623a4.326 4.326 0 0 1 4.326 4.326v6.234a4.325 4.325 0 0 1-4.326 4.325h-6.106a4.326 4.326 0 0 0-4.326 4.326ZM142.862 179.51v-25.057a4.325 4.325 0 0 0-4.325-4.326h-20.866a4.325 4.325 0 0 0-4.325 4.326v37.828c0 3.379 3.701 5.453 6.584 3.689l20.865-12.771a4.325 4.325 0 0 0 2.067-3.689ZM228.942 100h-20.866a4.325 4.325 0 0 0-4.325 4.326v36.896a5.088 5.088 0 0 0 5.089 5.089h19.338a5.088 5.088 0 0 0 5.089-5.089v-36.896a4.325 4.325 0 0 0-4.325-4.326ZM180.595 100H159.73a4.326 4.326 0 0 0-4.326 4.326v36.896a5.09 5.09 0 0 0 5.09 5.089h19.338a5.088 5.088 0 0 0 5.089-5.089v-36.896a4.326 4.326 0 0 0-4.326-4.326ZM180.595 150.127H159.73a4.326 4.326 0 0 0-4.326 4.326v25.107c0 1.517.617 2.97 1.708 4.024l12.08 11.678a5.086 5.086 0 0 0 3.537 1.43h43.213c1.32 0 2.588-.512 3.537-1.43l12.469-12.053a4.325 4.325 0 0 0 1.319-3.11v-25.646a4.325 4.325 0 0 0-4.325-4.326h-20.866a4.325 4.325 0 0 0-4.325 4.326v22.901a4.326 4.326 0 0 1-4.326 4.326h-10.178a4.326 4.326 0 0 1-4.326-4.326v-22.901a4.326 4.326 0 0 0-4.326-4.326Z"/></svg>